<svg width="22" height="22" viewBox="0 0 22 22" fill="none" xmlns="http://www.w3.org/2000/svg">
<rect width="22" height="22" fill="black"/>
<path d="M10.9997 1.83325C5.93738 1.83325 1.83301 5.95877 1.83301 11.0471C1.83301 15.6664 5.21856 19.4809 9.62926 20.1474V13.4888H7.36127V11.0671H9.62926V9.45544C9.62926 6.78725 10.9225 5.61632 13.1286 5.61632C14.1851 5.61632 14.7443 5.69541 15.0086 5.73073V7.84455H13.5037C12.5672 7.84455 12.2402 8.73752 12.2402 9.74337V11.0671H14.9849L14.6129 13.4888H12.2402V20.1666C16.7143 19.5569 20.1663 15.7117 20.1663 11.0471C20.1663 5.95877 16.062 1.83325 10.9997 1.83325Z" fill="white"/>
</svg>
