<svg width="22" height="22" viewBox="0 0 22 22" fill="none" xmlns="http://www.w3.org/2000/svg">
<rect width="22" height="22" fill="black"/>
<path d="M3.49967 1.83325C2.57884 1.83325 1.83301 2.57909 1.83301 3.49992V18.4999C1.83301 19.4208 2.57884 20.1666 3.49967 20.1666H18.4997C19.4205 20.1666 20.1663 19.4208 20.1663 18.4999V3.49992C20.1663 2.57909 19.4205 1.83325 18.4997 1.83325H3.49967ZM3.49967 3.49992H18.4997V8.49992H15.7832C14.7289 6.98985 12.9811 5.99992 10.9997 5.99992C9.01829 5.99992 7.27042 6.98985 6.21615 8.49992H3.49967V3.49992ZM15.9997 5.16658V6.83325H17.6663V5.16658H15.9997ZM10.9997 7.66658C13.2972 7.66658 15.1663 9.53575 15.1663 11.8333C15.1663 14.1308 13.2972 15.9999 10.9997 15.9999C8.70218 15.9999 6.83301 14.1308 6.83301 11.8333C6.83301 9.53575 8.70218 7.66658 10.9997 7.66658ZM10.9997 9.33325C10.6138 9.33325 10.2538 9.42807 9.92708 9.5839C10.0746 9.7339 10.1663 9.93908 10.1663 10.1666C10.1663 10.6266 9.79301 10.9999 9.33301 10.9999C9.10551 10.9999 8.90033 10.9082 8.75033 10.7607C8.59449 11.0873 8.49968 11.4474 8.49968 11.8333C8.49968 13.2141 9.61884 14.3333 10.9997 14.3333C12.3805 14.3333 13.4997 13.2141 13.4997 11.8333C13.4997 10.4524 12.3805 9.33325 10.9997 9.33325Z" fill="white"/>
</svg>
