<svg width="22" height="22" viewBox="0 0 22 22" fill="none" xmlns="http://www.w3.org/2000/svg">
<rect width="22" height="22" fill="black"/>
<path d="M10.9997 1.83325C5.94518 1.83325 1.83301 5.94542 1.83301 10.9999C1.83301 14.9636 4.36622 18.3378 7.89538 19.6138C7.85872 19.0565 7.79134 17.9758 7.79134 17.6077C7.79134 16.6906 7.8963 16.4151 7.8963 16.4151L8.93534 12.0935C8.7818 11.6443 8.70801 11.1406 8.70801 10.6704C8.70801 9.80367 9.26672 8.93742 10.083 8.93742C10.6889 8.93742 11.2288 9.39575 11.2288 10.2909C11.2288 10.5563 11.1922 10.8679 11.1001 11.2323L10.7499 12.6178C10.6449 13.0143 10.5638 13.777 10.9048 14.2248C11.0991 14.4791 11.4383 14.6327 11.9163 14.6666C13.8056 14.6666 14.6663 12.6472 14.6663 10.7708C14.6663 6.984 11.3746 6.87492 10.9997 6.87492C8.72497 6.87492 6.87468 8.57121 6.87468 10.6562C6.87468 11.543 7.14968 12.1962 7.47784 12.666C7.54338 12.7599 7.56951 12.875 7.54247 12.9863L7.28626 14.0515C7.25051 14.2005 7.06443 14.2614 6.95397 14.1555C6.02722 13.265 5.49968 12.022 5.49968 10.6562C5.49968 7.81313 7.96688 5.49992 10.9997 5.49992C14.1351 5.49992 16.4997 7.71688 16.4997 10.6562C16.4997 13.6257 14.5463 16.0416 12.1455 16.0416C11.2559 16.0416 10.5592 15.8019 10.0638 15.3339L9.59168 17.2021C9.3538 18.0683 9.06368 18.8608 8.30697 19.7614C9.15901 20.024 10.0628 20.1666 10.9997 20.1666C16.0542 20.1666 20.1663 16.0544 20.1663 10.9999C20.1663 5.94542 16.0542 1.83325 10.9997 1.83325Z" fill="white"/>
</svg>
