<svg width="22" height="22" viewBox="0 0 22 22" fill="none" xmlns="http://www.w3.org/2000/svg">
<rect width="22" height="22" fill="black"/>
<g clip-path="url(#clip0_742_10777)">
<path d="M17.0148 1.8562C16.4312 1.85677 15.8594 2.02059 15.3641 2.32913C14.8687 2.63767 14.4695 3.07864 14.2117 3.60218C13.9538 4.12572 13.8476 4.71096 13.9049 5.29173C13.9623 5.8725 14.1809 6.42565 14.5362 6.88865L11.8527 10.2781H8.02712C7.86464 9.593 7.47579 8.98277 6.92347 8.5461C6.37116 8.10943 5.68768 7.87186 4.98359 7.87182C4.15396 7.87182 3.35831 8.20139 2.77167 8.78803C2.18504 9.37467 1.85547 10.1703 1.85547 10.9999C1.85547 11.8296 2.18504 12.6252 2.77167 13.2119C3.35831 13.7985 4.15396 14.1281 4.98359 14.1281C5.68703 14.1272 6.36964 13.8892 6.92119 13.4526C7.47274 13.016 7.86103 12.4063 8.02336 11.7218H11.8527L14.5362 15.1113C14.1809 15.5742 13.9623 16.1274 13.9049 16.7082C13.8476 17.2889 13.9538 17.8742 14.2117 18.3977C14.4695 18.9213 14.8687 19.3622 15.3641 19.6708C15.8594 19.9793 16.4312 20.1431 17.0148 20.1437C17.8445 20.1437 18.6401 19.8141 19.2268 19.2275C19.8134 18.6409 20.143 17.8452 20.143 17.0156C20.143 16.1859 19.8134 15.3903 19.2268 14.8037C18.6401 14.217 17.8445 13.8874 17.0148 13.8874C16.5443 13.8886 16.08 13.9959 15.6566 14.2014L13.1235 10.9999L15.6557 7.80039C16.0795 8.00536 16.5441 8.11203 17.0148 8.11245C17.8445 8.11245 18.6401 7.78288 19.2268 7.19624C19.8134 6.60961 20.143 5.81396 20.143 4.98433C20.143 4.1547 19.8134 3.35904 19.2268 2.77241C18.6401 2.18577 17.8445 1.8562 17.0148 1.8562Z" fill="white"/>
</g>
<defs>
<clipPath id="clip0_742_10777">
<rect width="18.48" height="18.48" fill="white" transform="translate(1.75977 1.76001)"/>
</clipPath>
</defs>
</svg>
